<?xml version="1.0" ?><svg viewBox="0 0 512 512" xmlns="http://www.w3.org/2000/svg"><g id="Monstera"><path d="M413.8485,150.7858a3,3,0,0,0-2.4067-2.7876,118.0083,118.0083,0,0,0-24.78-2.1094,2.4117,2.4117,0,0,1-2.48-1.9609,2.3271,2.3271,0,0,1,1.42-2.7471,102.2907,102.2907,0,0,1,22.7588-7.0317,3.0009,3.0009,0,0,0,2.3808-3.6987,106.8592,106.8592,0,0,0-14.207-32.1353,2.91,2.91,0,0,0-.1758-.2407l-1.4058-1.7383a2.9992,2.9992,0,0,0-2.9785-1.0435,131.013,131.013,0,0,0-32.4961,12.2759,3.2451,3.2451,0,0,1-4.2119-.8515,3.1858,3.1858,0,0,1,.0288-4.2168,116.3322,116.3322,0,0,1,23.0484-21.5869,3,3,0,0,0,.6211-4.35L377.1,74.2565a63.8585,63.8585,0,0,0-42.6382-24.0473,28.042,28.042,0,0,0-31.4956,30.6777l.8985,9.977a10.0007,10.0007,0,0,1-.4421,3.9325l71.611,70.0841a4.5,4.5,0,0,1-6.2949,6.4327L305.5,109.4235h0l-6.4239-6.2869-1.9486-1.9069a9.9614,9.9614,0,0,1-3.9228.5254l-9.9942-.6832a28.042,28.042,0,0,0-29.9917,32.1495,63.83,63.83,0,0,0,24.9263,42.0844l2.3809,1.8413a3.0032,3.0032,0,0,0,1.0674.5237c-3.571,37.263-4.4338,85.47-2.58,143.9715H251.2455c1.1181-22.5694-.2513-43.4009-4.1435-62.292a191.4771,191.4771,0,0,0-7.57-26.8584,63.7161,63.7161,0,0,0,13.8194-42.4912,28.0419,28.0419,0,0,0-35.4019-26.0728l-9.6967,2.5127a9.99,9.99,0,0,1-3.9527.2054L146.828,248.7243a4.5,4.5,0,1,1-7.372-5.1621l57.4719-82.0788A10.0011,10.0011,0,0,1,195.769,157.7l-.9556-9.9717a28.0414,28.0414,0,0,0-36.6089-24.35,63.8285,63.8285,0,0,0-37.4565,31.4536l-1.4292,2.6489a3,3,0,0,0,1.4116,4.1612,116.3687,116.3687,0,0,1,26.6318,16.9707,3.1865,3.1865,0,0,1,.8052,4.14,3.2477,3.2477,0,0,1-3.9824,1.6128,131.0442,131.0442,0,0,0-34.2022-6.0786,3.0283,3.0283,0,0,0-2.7358,1.5747l-1.0611,1.9678c-.0468.0874-.09.1772-.1279.2685a106.8539,106.8539,0,0,0-8.043,34.2031,3.0006,3.0006,0,0,0,.8135,2.2574,3.0588,3.0588,0,0,0,2.208.9394,102.2216,102.2216,0,0,1,23.6646,2.7178,2.3272,2.3272,0,0,1,1.9023,2.4385,2.379,2.379,0,0,1-2.0757,2.3838,118.1122,118.1122,0,0,0-23.9677,6.6391,3,3,0,0,0-1.8521,3.1841c.4634,3.4336,1.0723,6.7471,1.81,9.8486l8.3725,35.2a11.3515,11.3515,0,0,0,12.3575,8.6529l35.9409-4.1714c3.165-.3677,6.4873-.9287,9.8735-1.668a3,3,0,0,0,2.3579-2.8291,118.0483,118.0483,0,0,0-1.958-24.7934,2.3788,2.3788,0,0,1,1.53-2.7657,2.328,2.328,0,0,1,2.9424.9537,102.3124,102.3124,0,0,1,10.6475,21.3076,3,3,0,0,0,4.0376,1.7461,106.8421,106.8421,0,0,0,29.3891-19.2559,2.9644,2.9644,0,0,0,.21-.2129l1.4858-1.67a3.0012,3.0012,0,0,0,.5435-3.1089,131.042,131.042,0,0,0-17.41-30.06,3.2469,3.2469,0,0,1,.1538-4.294,3.1864,3.1864,0,0,1,4.1651-.6592,116.3434,116.3434,0,0,1,25.0556,19.2212,3.1271,3.1271,0,0,0,2.1854.906c6.8879,20.2071,11.8,46.6253,9.9213,82.4344H186.09a4.5,4.5,0,0,0-4.39,5.4912l25.856,114.5239a25.9271,25.9271,0,0,0,25.4267,20.3262h62A25.9272,25.9272,0,0,0,320.41,441.6574L346.266,327.1335a4.5,4.5,0,0,0-4.39-5.4912H288.0192c-2.3079-72.6473-.16-121.5176,3.7112-154.3794a125.29,125.29,0,0,1,14.2168-14.3394,3.1867,3.1867,0,0,1,4.2153-.12,3.2468,3.2468,0,0,1,.9419,4.1924A130.9947,130.9947,0,0,0,299.5316,189.75a3.001,3.001,0,0,0,1.1075,2.956l1.768,1.3677c.0787.0606.16.1177.2442.17a106.8466,106.8466,0,0,0,32.4345,13.5108,3,3,0,0,0,3.6465-2.46,102.3231,102.3231,0,0,1,6.54-22.9048,2.3287,2.3287,0,0,1,2.7153-1.48,2.379,2.379,0,0,1,2.0142,2.437,118.1061,118.1061,0,0,0,2.643,24.73,3,3,0,0,0,2.8394,2.3457q1.6392.049,3.2476.0489c2.3217,0,4.5869-.0762,6.7641-.2281l36.0943-2.5219A11.3612,11.3612,0,0,0,412.1415,196.94l1.7432-36.14C414.038,157.6149,414.0263,154.2458,413.8485,150.7858ZM311.63,439.675a16.9751,16.9751,0,0,1-16.6475,13.3086h-62a16.9749,16.9749,0,0,1-16.6474-13.3086L199.9186,366.96H328.0474Z"/></g></svg>